<svg viewBox="0 0 680 280" width="100%" role="img" aria-label="向量检索流程图">
<title>向量检索流程图</title><desc>从查询到返回结果的向量检索全流程</desc>
<defs><marker id="a" viewBox="0 0 10 10" refX="8" refY="5" markerWidth="6" markerHeight="6" orient="auto-start-reverse"><path d="M2 1L8 5L2 9" fill="none" stroke="context-stroke" stroke-width="1.5" stroke-linecap="round" stroke-linejoin="round"/></marker></defs>
<text x="340" y="24" text-anchor="middle" font-size="16" font-weight="500" fill="#042C53" font-family="system-ui, sans-serif">向量检索流程</text>
<rect x="80" y="56" width="120" height="36" rx="8" fill="#FAEEDA" stroke="#BA7517" stroke-width="0.5"/>
<text x="140" y="75" text-anchor="middle" font-size="13" font-weight="500" fill="#042C53" font-family="system-ui, sans-serif">用户查询</text>
<line x1="200" y1="74" x2="230" y2="74" stroke="#5F5E5A" stroke-width="1" marker-end="url(#a)"/>
<rect x="232" y="56" width="120" height="36" rx="8" fill="#EEEDFE" stroke="#7F77DD" stroke-width="0.5"/>
<text x="292" y="75" text-anchor="middle" font-size="13" font-weight="500" fill="#042C53" font-family="system-ui, sans-serif">Embedding</text>
<line x1="352" y1="74" x2="382" y2="74" stroke="#5F5E5A" stroke-width="1" marker-end="url(#a)"/>
<rect x="384" y="56" width="120" height="36" rx="8" fill="#E1F5EE" stroke="#1D9E75" stroke-width="0.5"/>
<text x="444" y="75" text-anchor="middle" font-size="13" font-weight="500" fill="#042C53" font-family="system-ui, sans-serif">向量数据库</text>
<line x1="504" y1="74" x2="534" y2="74" stroke="#5F5E5A" stroke-width="1" marker-end="url(#a)"/>
<rect x="536" y="56" width="100" height="36" rx="8" fill="#E6F1FB" stroke="#378ADD" stroke-width="0.5"/>
<text x="586" y="75" text-anchor="middle" font-size="13" font-weight="500" fill="#042C53" font-family="system-ui, sans-serif">Top-K结果</text>
<rect x="50" y="110" width="580" height="80" rx="10" fill="#F1EFE8" stroke="#B4B2A9" stroke-width="0.5"/>
<text x="340" y="130" text-anchor="middle" font-size="13" font-weight="500" fill="#2C2C2A" font-family="system-ui, sans-serif">索引算法对比</text>
<rect x="100" y="148" width="150" height="30" rx="6" fill="#E6F1FB" stroke="#378ADD" stroke-width="0.5"/>
<text x="175" y="160" text-anchor="middle" font-size="12" font-weight="500" fill="#042C53" font-family="system-ui, sans-serif">Flat</text>
<text x="175" y="174" text-anchor="middle" font-size="10" font-weight="400" fill="#5F5E5A" font-family="system-ui, sans-serif">暴力搜索 | 100%召回</text>
<rect x="290" y="148" width="150" height="30" rx="6" fill="#EEEDFE" stroke="#378ADD" stroke-width="0.5"/>
<text x="365" y="160" text-anchor="middle" font-size="12" font-weight="500" fill="#042C53" font-family="system-ui, sans-serif">IVF</text>
<text x="365" y="174" text-anchor="middle" font-size="10" font-weight="400" fill="#5F5E5A" font-family="system-ui, sans-serif">倒排索引 | 95%召回</text>
<rect x="480" y="148" width="150" height="30" rx="6" fill="#E1F5EE" stroke="#378ADD" stroke-width="0.5"/>
<text x="555" y="160" text-anchor="middle" font-size="12" font-weight="500" fill="#042C53" font-family="system-ui, sans-serif">HNSW</text>
<text x="555" y="174" text-anchor="middle" font-size="10" font-weight="400" fill="#5F5E5A" font-family="system-ui, sans-serif">图搜索 | 98%召回</text>
<rect x="80" y="210" width="520" height="50" rx="10" fill="#F1EFE8" stroke="#B4B2A9" stroke-width="0.5"/>
<text x="340" y="230" text-anchor="middle" font-size="13" font-weight="500" fill="#2C2C2A" font-family="system-ui, sans-serif">混合检索: 向量检索 + BM25关键词检索</text>
<text x="340" y="250" text-anchor="middle" font-size="11" font-weight="400" fill="#444441" font-family="system-ui, sans-serif">融合后通过Cross-Encoder重排序，Precision@5提升至72%</text>
</svg>