<svg xmlns="http://www.w3.org/2000/svg" width="1120" height="680" aria-labelledby="title desc" role="img" viewBox="0 0 1120 680"><title id="title">LeetCode 3: 无重复字符的最长子串：真实状态图解</title><desc id="desc">用具体输入、指针/状态表和边界变化解释算法，而不是套流程图。</desc><defs><marker id="arrow" markerHeight="12" markerWidth="12" orient="auto" refX="10" refY="6"><path fill="#475569" d="M2,2 L10,6 L2,10 Z"/></marker><filter id="shadow" width="140%" height="140%" x="-20%" y="-20%"><feDropShadow dx="0" dy="8" flood-color="#0f172a" flood-opacity=".12" stdDeviation="8"/></filter></defs><rect width="1120" height="680" fill="#f8fafc" rx="18"/><text x="40" y="44" fill="#0f172a" font-size="24" font-weight="900" text-anchor="start">LeetCode 3: 无重复字符的最长子串：</text><text x="40" y="76" fill="#0f172a" font-size="24" font-weight="900" text-anchor="start">真实状态图解</text><text x="40" y="108" fill="#475569" font-size="15" font-weight="500" text-anchor="start">用具体输入、指针/状态表和边界变化解释算法，而不是套流程图。</text><rect width="52" height="46" x="70" y="170" fill="#dcfce7" stroke="#16a34a" stroke-width="2" rx="6"/><text x="96" y="199" fill="#0f172a" font-size="15" font-weight="800" text-anchor="middle">a</text><text x="96" y="236" fill="#64748b" font-size="11" font-weight="500" text-anchor="middle">0</text><rect width="52" height="46" x="122" y="170" fill="#dcfce7" stroke="#16a34a" stroke-width="2" rx="6"/><text x="148" y="199" fill="#0f172a" font-size="15" font-weight="800" text-anchor="middle">b</text><text x="148" y="236" fill="#64748b" font-size="11" font-weight="500" text-anchor="middle">1</text><rect width="52" height="46" x="174" y="170" fill="#dcfce7" stroke="#16a34a" stroke-width="2" rx="6"/><text x="200" y="199" fill="#0f172a" font-size="15" font-weight="800" text-anchor="middle">c</text><text x="200" y="236" fill="#64748b" font-size="11" font-weight="500" text-anchor="middle">2</text><rect width="52" height="46" x="226" y="170" fill="#fff" stroke="#cbd5e1" stroke-width="2" rx="6"/><text x="252" y="199" fill="#0f172a" font-size="15" font-weight="800" text-anchor="middle">a</text><text x="252" y="236" fill="#64748b" font-size="11" font-weight="500" text-anchor="middle">3</text><rect width="52" height="46" x="278" y="170" fill="#fff" stroke="#cbd5e1" stroke-width="2" rx="6"/><text x="304" y="199" fill="#0f172a" font-size="15" font-weight="800" text-anchor="middle">b</text><text x="304" y="236" fill="#64748b" font-size="11" font-weight="500" text-anchor="middle">4</text><rect width="52" height="46" x="330" y="170" fill="#fff" stroke="#cbd5e1" stroke-width="2" rx="6"/><text x="356" y="199" fill="#0f172a" font-size="15" font-weight="800" text-anchor="middle">c</text><text x="356" y="236" fill="#64748b" font-size="11" font-weight="500" text-anchor="middle">5</text><rect width="52" height="46" x="382" y="170" fill="#fff" stroke="#cbd5e1" stroke-width="2" rx="6"/><text x="408" y="199" fill="#0f172a" font-size="15" font-weight="800" text-anchor="middle">b</text><text x="408" y="236" fill="#64748b" font-size="11" font-weight="500" text-anchor="middle">6</text><rect width="52" height="46" x="434" y="170" fill="#fff" stroke="#cbd5e1" stroke-width="2" rx="6"/><text x="460" y="199" fill="#0f172a" font-size="15" font-weight="800" text-anchor="middle">b</text><text x="460" y="236" fill="#64748b" font-size="11" font-weight="500" text-anchor="middle">7</text><text x="96" y="144" fill="#16a34a" font-size="13" font-weight="800" text-anchor="middle">left</text><path fill="none" stroke="#16a34a" stroke-width="2.5" marker-end="url(#arrow)" d="M96,149 L96,168"/><text x="200" y="144" fill="#2563eb" font-size="13" font-weight="800" text-anchor="middle">right</text><path fill="none" stroke="#2563eb" stroke-width="2.5" marker-end="url(#arrow)" d="M200,149 L200,168"/><rect width="300" height="86" x="560" y="145" fill="#fff7ed" stroke="#fb923c" stroke-width="2" rx="12"/><text x="574" y="171" fill="#9a3412" font-size="15" font-weight="800" text-anchor="start">窗口 set={a,b,c}</text><text x="574" y="195" fill="#7c2d12" font-size="12" font-weight="500" text-anchor="start">right 扩张遇到重复 a 时，</text><text x="574" y="213" fill="#7c2d12" font-size="12" font-weight="500" text-anchor="start">left 连续右移直到窗口再次无重复。</text><rect width="160" height="34" x="90" y="300" fill="#dcfce7" stroke="#16a34a" stroke-width="2" rx="17"/><text x="170" y="323" fill="#0f172a" font-size="13" font-weight="700" text-anchor="middle">best=3: &quot;abc&quot;</text></svg>