<svg xmlns="http://www.w3.org/2000/svg" width="1120" height="680" aria-labelledby="title desc" role="img" viewBox="0 0 1120 680"><title id="title">LeetCode 739: 每日温度：真实状态图解</title><desc id="desc">用具体输入、指针/状态表和边界变化解释算法，而不是套流程图。</desc><defs><marker id="arrow" markerHeight="12" markerWidth="12" orient="auto" refX="10" refY="6"><path fill="#475569" d="M2,2 L10,6 L2,10 Z"/></marker><filter id="shadow" width="140%" height="140%" x="-20%" y="-20%"><feDropShadow dx="0" dy="8" flood-color="#0f172a" flood-opacity=".12" stdDeviation="8"/></filter></defs><rect width="1120" height="680" fill="#f8fafc" rx="18"/><text x="40" y="52" fill="#0f172a" font-size="28" font-weight="900" text-anchor="start">LeetCode 739: 每日温度：真实状态图解</text><text x="40" y="82" fill="#475569" font-size="15" font-weight="500" text-anchor="start">用具体输入、指针/状态表和边界变化解释算法，而不是套流程图。</text><rect width="58" height="46" x="55" y="160" fill="#fff" stroke="#cbd5e1" stroke-width="2" rx="6"/><text x="84" y="189" fill="#0f172a" font-size="15" font-weight="800" text-anchor="middle">73</text><text x="84" y="226" fill="#64748b" font-size="11" font-weight="500" text-anchor="middle">0</text><rect width="58" height="46" x="113" y="160" fill="#fff" stroke="#cbd5e1" stroke-width="2" rx="6"/><text x="142" y="189" fill="#0f172a" font-size="15" font-weight="800" text-anchor="middle">74</text><text x="142" y="226" fill="#64748b" font-size="11" font-weight="500" text-anchor="middle">1</text><rect width="58" height="46" x="171" y="160" fill="#fff" stroke="#cbd5e1" stroke-width="2" rx="6"/><text x="200" y="189" fill="#0f172a" font-size="15" font-weight="800" text-anchor="middle">75</text><text x="200" y="226" fill="#64748b" font-size="11" font-weight="500" text-anchor="middle">2</text><rect width="58" height="46" x="229" y="160" fill="#dcfce7" stroke="#16a34a" stroke-width="2" rx="6"/><text x="258" y="189" fill="#0f172a" font-size="15" font-weight="800" text-anchor="middle">71</text><text x="258" y="226" fill="#64748b" font-size="11" font-weight="500" text-anchor="middle">3</text><rect width="58" height="46" x="287" y="160" fill="#dcfce7" stroke="#16a34a" stroke-width="2" rx="6"/><text x="316" y="189" fill="#0f172a" font-size="15" font-weight="800" text-anchor="middle">69</text><text x="316" y="226" fill="#64748b" font-size="11" font-weight="500" text-anchor="middle">4</text><rect width="58" height="46" x="345" y="160" fill="#dcfce7" stroke="#16a34a" stroke-width="2" rx="6"/><text x="374" y="189" fill="#0f172a" font-size="15" font-weight="800" text-anchor="middle">72</text><text x="374" y="226" fill="#64748b" font-size="11" font-weight="500" text-anchor="middle">5</text><rect width="58" height="46" x="403" y="160" fill="#fff" stroke="#cbd5e1" stroke-width="2" rx="6"/><text x="432" y="189" fill="#0f172a" font-size="15" font-weight="800" text-anchor="middle">76</text><text x="432" y="226" fill="#64748b" font-size="11" font-weight="500" text-anchor="middle">6</text><rect width="58" height="46" x="461" y="160" fill="#fff" stroke="#cbd5e1" stroke-width="2" rx="6"/><text x="490" y="189" fill="#0f172a" font-size="15" font-weight="800" text-anchor="middle">73</text><text x="490" y="226" fill="#64748b" font-size="11" font-weight="500" text-anchor="middle">7</text><text x="374" y="134" fill="#2563eb" font-size="13" font-weight="800" text-anchor="middle">i=5,72</text><path fill="none" stroke="#2563eb" stroke-width="2.5" marker-end="url(#arrow)" d="M374,139 L374,158"/><text x="645" y="136" fill="#7c3aed" font-size="14" font-weight="900" text-anchor="middle">单调递减栈</text><rect width="150" height="34" x="570" y="184" fill="#fff" stroke="#8b5cf6" stroke-width="2" rx="4"/><text x="645" y="206" fill="#0f172a" font-size="13" font-weight="800" text-anchor="middle">idx3:71</text><rect width="150" height="34" x="570" y="150" fill="#ede9fe" stroke="#8b5cf6" stroke-width="2" rx="4"/><text x="645" y="172" fill="#0f172a" font-size="13" font-weight="800" text-anchor="middle">idx4:69</text><path fill="none" stroke="#2563eb" stroke-width="2.5" marker-end="url(#arrow)" d="M520,185 L570,225"/><rect width="230" height="86" x="710" y="155" fill="#fff7ed" stroke="#fb923c" stroke-width="2" rx="12"/><text x="724" y="181" fill="#9a3412" font-size="15" font-weight="800" text-anchor="start">弹栈结算</text><text x="724" y="205" fill="#7c2d12" font-size="12" font-weight="500" text-anchor="start">72 大于 69 和 71，</text><text x="724" y="223" fill="#7c2d12" font-size="12" font-weight="500" text-anchor="start">分别得到等待 1 天和 2 天。</text><text x="724" y="241" fill="#7c2d12" font-size="12" font-weight="500" text-anchor="start">栈里只留未找到升温日的下标。</text></svg>