<svg xmlns="http://www.w3.org/2000/svg" width="1120" height="680" viewBox="0 0 1120 680" role="img" aria-labelledby="title desc">
  <title id="title">LeetCode 46: 全排列：真实状态图解</title>
  <desc id="desc">用具体输入、指针/状态表和边界变化解释算法，而不是套流程图。</desc>
  <defs>
    <marker id="arrow" markerWidth="12" markerHeight="12" refX="10" refY="6" orient="auto"><path d="M2,2 L10,6 L2,10 Z" fill="#475569"/></marker>
    <filter id="shadow" x="-20%" y="-20%" width="140%" height="140%"><feDropShadow dx="0" dy="8" stdDeviation="8" flood-color="#0f172a" flood-opacity="0.12"/></filter>
  </defs>
  <rect width="1120" height="680" rx="18" fill="#f8fafc"/>
  <text x="40" y="52" font-size="28" fill="#0f172a" font-weight="900" text-anchor="start">LeetCode 46: 全排列：真实状态图解</text>
  <text x="40" y="82" font-size="15" fill="#475569" font-weight="500" text-anchor="start">用具体输入、指针/状态表和边界变化解释算法，而不是套流程图。</text>
  <path d="M330,122 L180,183" stroke="#94a3b8" stroke-width="2.5" fill="none"  marker-end="url(#arrow)"/><path d="M330,122 L330,183" stroke="#94a3b8" stroke-width="2.5" fill="none"  marker-end="url(#arrow)"/><path d="M330,122 L480,183" stroke="#94a3b8" stroke-width="2.5" fill="none"  marker-end="url(#arrow)"/><path d="M180,227 L120,293" stroke="#94a3b8" stroke-width="2.5" fill="none"  marker-end="url(#arrow)"/><path d="M180,227 L240,293" stroke="#94a3b8" stroke-width="2.5" fill="none"  marker-end="url(#arrow)"/><path d="M330,227 L330,293" stroke="#94a3b8" stroke-width="2.5" fill="none"  marker-end="url(#arrow)"/><circle cx="330" cy="100" r="24" fill="#e0f2fe" stroke="#0284c7" stroke-width="2"/><text x="330" y="106" font-size="14" fill="#0f172a" font-weight="800" text-anchor="middle">[]</text><circle cx="180" cy="205" r="24" fill="#e0f2fe" stroke="#0284c7" stroke-width="2"/><text x="180" y="211" font-size="14" fill="#0f172a" font-weight="800" text-anchor="middle">[1]</text><circle cx="330" cy="205" r="24" fill="#e0f2fe" stroke="#0284c7" stroke-width="2"/><text x="330" y="211" font-size="14" fill="#0f172a" font-weight="800" text-anchor="middle">[2]</text><circle cx="480" cy="205" r="24" fill="#e0f2fe" stroke="#0284c7" stroke-width="2"/><text x="480" y="211" font-size="14" fill="#0f172a" font-weight="800" text-anchor="middle">[3]</text><circle cx="120" cy="315" r="24" fill="#e0f2fe" stroke="#0284c7" stroke-width="2"/><text x="120" y="321" font-size="14" fill="#0f172a" font-weight="800" text-anchor="middle">[1,2]</text><circle cx="240" cy="315" r="24" fill="#e0f2fe" stroke="#0284c7" stroke-width="2"/><text x="240" y="321" font-size="14" fill="#0f172a" font-weight="800" text-anchor="middle">[1,3]</text><circle cx="330" cy="315" r="24" fill="#e0f2fe" stroke="#0284c7" stroke-width="2"/><text x="330" y="321" font-size="14" fill="#0f172a" font-weight="800" text-anchor="middle">[2,1]</text><rect x="610" y="160" width="270" height="86" rx="12" fill="#fff7ed" stroke="#fb923c" stroke-width="2"/><text x="624" y="186" font-size="15" fill="#9a3412" font-weight="800" text-anchor="start">used 数组</text><text x="624" y="210" font-size="12" fill="#7c2d12" font-weight="500" text-anchor="start">每层枚举未使用数字，</text><text x="624" y="228" font-size="12" fill="#7c2d12" font-weight="500" text-anchor="start">path 长度等于 n 时收集一个排列</text><text x="624" y="246" font-size="12" fill="#7c2d12" font-weight="500" text-anchor="start">。</text>
</svg>
